<?xml version="1.0" standalone="no"?>
<!DOCTYPE svg PUBLIC "-//W3C//DTD SVG 20010904//EN"
 "http://www.w3.org/TR/2001/REC-SVG-20010904/DTD/svg10.dtd">
<svg version="1.0" xmlns="http://www.w3.org/2000/svg"
 width="273.000000pt" height="300.000000pt" viewBox="0 0 273.000000 300.000000"
 preserveAspectRatio="xMidYMid meet">

<g transform="translate(0.000000,300.000000) scale(0.100000,-0.100000)"
fill="white" stroke="none">
<path fill="black" d="M1235 2984 c-66 -16 -228 -99 -350 -178 -288 -189 -535 -458 -676
-738 -71 -140 -62 -148 154 -148 89 0 167 4 173 8 6 4 32 42 58 85 118 200
286 373 496 509 130 85 207 121 264 126 46 4 61 -1 151 -47 144 -74 274 -170
400 -296 104 -103 205 -236 253 -331 12 -23 28 -44 37 -48 9 -3 88 -6 174 -6
140 0 160 2 174 18 24 26 21 44 -14 114 -180 357 -483 657 -870 862 -157 83
-283 104 -424 70z m243 -19 c100 -24 297 -131 457 -250 236 -174 439 -410 565
-656 61 -120 62 -119 -134 -119 -83 0 -156 4 -162 8 -6 4 -19 23 -29 42 -46
92 -149 224 -255 330 -130 130 -259 226 -403 300 -125 64 -168 66 -276 15
-260 -125 -532 -374 -666 -610 -51 -90 -39 -85 -210 -85 -194 0 -194 0 -141
108 145 295 408 576 715 766 247 153 377 189 539 151z"/>
<path fill="yellow"  d="M1274 2896 c-33 -8 -94 -31 -134 -51 -165 -83 -386 -236 -376 -261 4
-9 -2 -14 -17 -14 -13 0 -40 -19 -68 -47 -25 -27 -56 -55 -70 -64 -13 -10 -21
-20 -16 -25 4 -4 18 3 32 16 l25 24 -6 -32 c-5 -25 -3 -32 9 -32 16 0 47 25
47 38 0 4 14 15 30 24 41 23 41 52 0 46 -34 -5 -40 6 -11 22 36 19 69 11 100
-22 20 -22 34 -29 40 -23 7 7 -3 27 -29 60 -35 44 -37 50 -22 62 28 21 46 15
75 -27 16 -22 35 -40 43 -40 21 0 17 12 -16 56 -16 21 -30 44 -30 51 0 11 66
63 81 63 4 0 5 -9 2 -20 -8 -30 15 -25 45 10 26 30 67 42 60 18 -2 -7 -26 -28
-54 -46 -67 -46 -66 -55 3 -26 32 13 77 26 101 30 23 3 42 10 42 15 0 12 -32
11 -64 -1 -29 -10 -35 0 -11 20 17 14 20 36 6 45 -5 3 -29 -1 -52 -9 -23 -8
-38 -11 -33 -6 13 13 153 91 192 107 32 13 32 13 26 -12 -9 -34 26 -47 83 -30
40 12 53 11 53 -6 0 -14 -57 -39 -88 -39 -16 0 -51 11 -78 25 -57 29 -85 17
-33 -14 47 -29 95 -36 148 -22 75 20 98 52 63 84 -17 16 -21 15 -56 -2 -62
-32 -87 -8 -33 32 19 15 29 17 39 9 7 -6 34 -16 60 -22 45 -12 46 -12 33 -37
-10 -18 -11 -33 -3 -54 13 -39 32 -38 24 1 -4 23 0 36 15 51 25 25 21 30 -44
51 -48 15 -50 16 -19 17 44 1 119 -18 132 -34 8 -10 6 -24 -9 -54 -12 -22 -21
-47 -21 -56 0 -30 20 -14 45 35 14 28 30 50 36 50 27 0 212 -108 204 -120 -6
-9 -60 17 -100 48 -33 26 -83 29 -92 5 -7 -18 38 -63 63 -63 24 0 12 35 -14
38 -25 4 -30 22 -6 22 24 0 54 -19 54 -35 0 -8 9 -15 21 -15 11 0 29 -5 40
-11 20 -10 20 -10 -1 -43 -23 -38 -25 -56 -7 -56 6 0 25 21 41 46 29 46 50 53
70 22 8 -13 3 -27 -23 -63 -26 -36 -31 -49 -21 -55 9 -6 24 6 47 36 19 24 40
44 47 44 16 0 168 -129 174 -149 6 -17 -52 24 -87 62 -34 36 -85 42 -89 10 -3
-22 32 -63 55 -63 23 0 14 29 -14 44 -26 14 -26 15 -6 16 24 0 53 -24 53 -46
0 -8 8 -14 18 -14 11 0 26 -8 36 -19 15 -16 15 -19 1 -31 -23 -19 -37 -49 -29
-61 4 -7 24 6 50 32 37 36 45 40 59 29 8 -7 19 -9 23 -5 10 10 -231 225 -253
225 -4 0 -23 13 -41 30 -46 40 -210 136 -303 176 -93 40 -179 50 -267 30z"/>
<path fill="green" d="M357 2133 c4 -16 8 -51 7 -78 l0 -51 54 19 c30 10 61 16 69 13 9 -4
13 -1 11 6 -3 7 -17 14 -31 16 -31 4 -32 9 -12 36 28 37 8 51 -27 19 -11 -9
-18 -11 -18 -5 0 15 -36 52 -50 52 -6 0 -7 -11 -3 -27z"/>
<path fill="green" d="M2342 2144 c-12 -8 -22 -22 -22 -31 0 -15 -2 -14 -18 0 -18 16 -42
23 -42 12 0 -4 7 -19 15 -35 14 -28 14 -29 -12 -32 -14 -2 -28 -9 -31 -16 -2
-7 2 -10 11 -6 8 3 39 -3 68 -13 l54 -18 0 45 c0 25 3 60 7 78 8 36 3 39 -30
16z"/>
<path fill="black" d="M1348 2619 c-14 -8 -18 -24 -18 -77 l0 -68 -42 -19 c-60 -28 -83 -64
-84 -133 l-1 -57 -247 -348 c-135 -191 -251 -358 -257 -370 -6 -12 -21 -33
-34 -47 -35 -39 -198 -273 -187 -269 5 2 59 63 120 134 62 72 125 144 141 160
16 17 158 179 316 360 158 182 298 334 311 339 14 6 30 6 42 0 10 -5 146 -155
302 -334 155 -179 297 -341 316 -360 27 -29 146 -166 241 -279 12 -14 22 -22
23 -17 0 8 -138 208 -187 271 -13 17 -139 194 -280 394 l-255 365 -3 58 c-2
71 -23 105 -83 133 l-42 19 0 63 c0 43 -5 66 -16 77 -18 18 -51 20 -76 5z"/>
<path fill='red' d="M1159 1943 c-18 -21 -15 -104 5 -162 9 -24 16 -45 16 -46 0 -2 -23
-8 -50 -14 -86 -18 -150 -58 -150 -93 0 -40 46 -66 186 -103 7 -2 5 -27 -8
-77 -21 -82 -17 -132 12 -148 32 -17 68 -1 131 57 l59 55 59 -55 c33 -30 71
-57 85 -61 63 -16 88 41 63 140 -9 33 -17 65 -19 73 -2 9 6 16 17 18 46 9 122
36 147 55 68 48 5 116 -133 142 l-35 6 17 68 c10 37 18 78 18 92 1 35 -26 70
-53 70 -30 0 -92 -41 -134 -88 l-32 -37 -21 28 c-34 44 -109 97 -139 97 -15 0
-34 -7 -41 -17z m134 -63 l61 -57 -33 -42 c-28 -36 -38 -41 -72 -41 -21 0 -42
-1 -46 -2 -10 -3 -41 107 -42 149 -1 39 21 63 50 56 12 -4 49 -32 82 -63z
m251 54 c20 -20 19 -74 -2 -144 l-18 -55 -44 3 c-36 3 -50 9 -72 35 -15 18
-28 39 -28 47 0 25 108 121 147 130 1 0 9 -7 17 -16z m-160 -159 c22 -34 21
-35 -24 -35 -22 0 -40 2 -40 5 0 11 32 55 40 55 4 0 15 -11 24 -25z m62 -99
l28 -53 -28 -47 -27 -46 -59 0 -58 0 -26 46 c-14 26 -26 50 -26 53 0 4 13 28
30 54 29 47 30 47 84 47 l54 0 28 -54z m-188 8 c-22 -37 -28 -35 -42 14 -7 20
-4 22 28 22 l35 0 -21 -36z m252 24 c-1 -7 -7 -24 -14 -37 l-14 -25 -16 32
c-21 41 -21 42 14 42 18 0 30 -5 30 -12z m-302 -40 c19 -42 19 -44 -1 -83 -11
-22 -21 -41 -22 -43 -11 -13 -166 46 -180 68 -13 22 8 49 53 68 103 44 127 42
150 -10z m418 25 c91 -30 116 -61 77 -95 -22 -18 -86 -43 -135 -52 -36 -6 -36
-6 -53 39 -17 43 -17 47 0 85 21 46 35 49 111 23z m-363 -128 c16 -35 16 -35
-6 -35 -39 0 -50 13 -36 43 16 35 22 34 42 -8z m242 -3 c7 -25 -9 -36 -44 -30
l-20 3 21 33 c21 34 31 33 43 -6z m-237 -48 c21 -4 39 -19 55 -43 l25 -37 -27
-32 c-37 -44 -100 -92 -123 -92 -30 0 -43 41 -30 102 22 109 29 116 100 102z
m268 -29 c8 -19 17 -61 20 -93 7 -66 -8 -89 -47 -77 -25 8 -129 102 -129 117
0 22 47 77 70 81 64 10 71 8 86 -28z m-136 19 c0 -3 -8 -17 -19 -30 -17 -22
-19 -22 -33 -6 -32 37 -31 42 11 42 23 0 41 -3 41 -6z"/>
<path  d="M118 1838 c-32 -26 -89 -247 -108 -420 -42 -374 168 -745 515 -909
185 -87 158 -84 840 -84 683 0 659 -3 842 86 348 167 554 533 512 912 -19 164
-73 380 -105 411 -13 13 -44 16 -174 16 -209 0 -212 -3 -165 -148 59 -184 74
-346 41 -457 -54 -181 -195 -324 -376 -380 -43 -13 -108 -18 -290 -22 -129 -3
-232 -2 -228 2 6 7 421 146 551 186 38 11 67 23 64 26 -3 3 -90 -23 -192 -57
-102 -34 -189 -59 -192 -56 -4 3 0 6 8 6 11 0 11 2 2 8 -8 5 85 54 251 133
146 68 261 125 257 127 -4 1 -125 -54 -270 -123 -145 -69 -266 -124 -268 -122
-2 2 114 68 257 147 143 78 259 148 257 154 -2 6 -50 44 -107 85 l-104 74
-190 -99 c-105 -55 -234 -121 -287 -148 l-95 -50 -283 147 c-155 81 -286 147
-289 147 -13 -1 -206 -145 -209 -156 -2 -7 109 -74 247 -149 138 -76 249 -140
247 -142 -3 -2 -120 51 -261 118 -141 67 -259 120 -261 117 -2 -2 115 -60 260
-128 145 -68 262 -126 260 -128 -2 -3 -124 44 -271 102 -146 59 -268 105 -270
103 -2 -2 114 -50 257 -107 144 -58 257 -106 252 -107 -5 -2 -35 6 -68 17 -32
11 -63 20 -69 19 -10 0 94 -39 146 -54 18 -5 20 -4 8 4 -13 10 -13 11 0 11 8
0 22 -5 30 -10 12 -8 12 -10 1 -10 -8 0 -12 -2 -9 -5 3 -3 18 -1 34 5 25 9 27
8 12 -3 -14 -12 -4 -18 85 -47 63 -21 94 -36 82 -38 -11 -3 -117 -2 -235 1
-163 4 -228 9 -270 22 -201 62 -344 221 -386 429 -15 71 -15 88 -1 185 9 58
28 147 43 196 54 180 58 175 -155 175 -111 0 -162 -4 -173 -12z m116 -128 c49
-16 58 -17 63 -5 3 8 9 15 15 15 5 0 6 -5 3 -11 -4 -6 1 -16 11 -23 14 -11 16
-22 11 -64 -6 -54 -44 -152 -58 -152 -12 0 -13 -4 16 65 25 61 33 125 15 125
-23 0 -70 -228 -70 -338 0 -138 58 -290 151 -396 43 -49 48 -60 21 -52 -13 4
-33 -6 -64 -34 -25 -21 -48 -37 -50 -34 -3 3 -2 22 3 42 13 56 11 82 -5 76
-18 -7 -46 22 -46 47 0 28 36 24 56 -7 10 -14 20 -41 23 -59 6 -34 6 -34 29
-17 l23 18 -51 76 -51 77 -54 -24 c-50 -22 -65 -23 -65 -4 0 4 24 19 54 32
l54 25 -11 42 c-11 39 -12 40 -20 17 -6 -18 -18 -27 -45 -32 -45 -8 -64 12
-61 70 1 22 -6 58 -16 79 -19 46 -14 92 15 129 29 36 90 55 90 27 0 -3 -16
-12 -35 -19 -44 -16 -69 -60 -61 -106 4 -18 14 -36 23 -39 22 -9 27 -1 14 22
-25 47 2 102 39 82 20 -11 18 -16 35 91 4 26 1 27 -60 39 -67 13 -78 22 -46
39 10 6 32 31 47 56 40 63 54 59 54 -15 0 -33 3 -60 8 -60 7 0 46 149 40 155
-2 1 -27 10 -55 19 -31 10 -53 24 -53 32 0 17 -4 18 64 -6z m2322 -2 c-3 -13
-9 -49 -13 -80 -6 -63 -14 -70 -37 -36 -15 21 -16 21 -16 3 0 -11 -3 -38 -7
-59 l-6 -39 52 7 c28 4 57 9 65 12 7 3 16 -2 19 -10 5 -11 -4 -17 -36 -23 -33
-7 -43 -14 -45 -31 -2 -12 1 -22 7 -22 5 0 9 -19 8 -41 -1 -24 3 -44 9 -46 7
-2 10 5 7 20 -6 32 13 43 28 16 14 -28 -3 -69 -30 -69 -20 0 -44 45 -40 76 3
28 -12 84 -23 84 -5 0 -7 -8 -4 -17 3 -10 8 -55 12 -100 7 -82 7 -83 34 -83
48 0 90 -12 90 -26 0 -10 -14 -12 -63 -7 -61 5 -64 5 -70 -18 -9 -32 6 -44 56
-44 41 0 42 -1 45 -37 2 -22 -1 -38 -7 -38 -6 0 -11 11 -11 25 0 24 -3 26 -40
23 -22 -1 -42 1 -46 5 -4 4 -22 -28 -41 -71 -31 -72 -32 -78 -16 -90 16 -12
19 -8 27 42 9 57 23 69 46 41 7 -8 25 -15 41 -15 19 0 29 -5 29 -15 0 -17 -65
-22 -75 -5 -16 26 -27 7 -23 -40 3 -28 2 -53 -3 -55 -4 -3 -23 4 -43 15 l-35
21 -17 -26 c-11 -16 -14 -29 -8 -33 38 -26 84 -66 84 -73 0 -5 -12 -12 -27
-15 -16 -4 -49 -17 -75 -30 -59 -30 -68 -18 -34 41 39 66 32 69 -29 11 -30
-29 -55 -56 -55 -60 0 -5 14 -25 30 -46 17 -21 30 -43 30 -49 0 -25 -27 -8
-55 34 -31 46 -43 53 -63 33 -8 -8 -3 -27 24 -75 20 -34 34 -63 32 -63 -147
-14 -163 -8 -105 41 27 24 30 30 17 39 -19 13 -63 13 -55 0 3 -5 13 -10 21
-10 19 0 14 -21 -7 -30 -8 -4 -24 -12 -36 -18 -48 -25 -82 -6 -50 27 10 11 5
13 -27 8 -21 -4 -41 -8 -44 -11 -3 -3 0 -31 7 -62 6 -32 9 -60 6 -62 -3 -3
-22 3 -44 12 -21 10 -54 21 -72 25 -40 8 -49 28 -17 40 13 5 39 16 58 25 l35
15 -82 -2 -83 -2 0 -62 c0 -48 -3 -63 -15 -63 -10 0 -15 16 -17 62 -2 44 -7
62 -15 61 -7 -2 -13 2 -13 7 0 6 5 10 10 10 6 0 10 7 10 15 0 9 12 20 26 25
34 13 165 12 184 -1 11 -8 -1 -9 -45 -5 -68 6 -127 -4 -133 -22 -5 -15 87 -16
163 -2 28 5 71 13 97 16 27 4 53 13 59 20 6 8 27 14 45 14 24 0 32 4 28 13 -3
8 6 18 21 25 19 9 25 17 20 31 -7 24 39 79 101 122 46 31 54 34 54 19 0 -5
-13 -16 -30 -25 -67 -34 -126 -105 -88 -105 25 0 154 146 190 215 47 89 78
202 78 281 0 79 -26 229 -56 324 -22 70 -24 105 -3 69 8 -15 13 -15 61 2 69
23 71 23 64 -3z m24 -84 c0 -8 -4 -14 -9 -14 -11 0 -22 26 -14 34 9 9 23 -3
23 -20z m-1497 -353 l277 -143 0 -139 c0 -77 -3 -139 -6 -139 -10 0 -738 402
-752 415 -11 10 5 26 89 84 57 39 106 70 109 69 4 -2 131 -68 283 -147z m962
73 c75 -53 93 -70 83 -79 -14 -13 -743 -415 -752 -415 -3 0 -6 63 -6 139 l0
139 278 145 c152 80 283 144 289 142 7 -3 56 -35 108 -71z m-926 -378 c20 -11
21 -14 6 -19 -9 -4 -24 -3 -33 3 -14 8 -14 9 -2 10 13 0 13 1 0 10 -22 14 1
11 29 -4z m521 -7 c12 -8 9 -9 -10 -4 l-25 6 24 -14 23 -14 -23 -6 c-13 -4
-28 -2 -34 4 -7 7 -4 8 10 4 19 -6 19 -6 2 8 -14 11 -15 16 -5 20 19 8 22 8
38 -4z m-1043 -199 c31 -18 32 -22 30 -77 l-2 -58 -38 -3 c-46 -4 -80 16 -107
61 -24 39 -27 87 -5 87 8 0 14 -8 13 -17 -5 -63 31 -113 82 -113 40 0 40 26 0
34 -19 3 -30 12 -30 22 0 13 6 15 30 11 36 -8 48 8 24 34 -20 22 -36 25 -28 5
8 -21 -10 -27 -34 -10 -26 18 -19 44 12 44 11 0 35 -9 53 -20z m936 -45 c9 -4
17 -12 17 -17 0 -6 -7 -8 -15 -4 -8 3 -54 10 -101 16 -98 12 -174 5 -174 -16
0 -11 33 -14 182 -14 100 0 178 -3 175 -7 -4 -3 -40 -5 -79 -4 -67 1 -71 0
-54 -14 11 -8 36 -15 57 -15 38 0 70 -24 53 -40 -17 -16 -64 -16 -64 0 0 6 10
10 23 10 19 1 20 2 5 11 -12 7 -24 6 -39 -1 -20 -11 -20 -12 -3 -31 30 -34 8
-53 -64 -57 -60 -3 -63 -2 -104 36 -31 29 -40 44 -34 57 6 17 9 15 26 -13 23
-37 75 -72 107 -72 32 0 53 10 53 27 0 10 -8 12 -34 8 -45 -9 -58 12 -17 28
38 14 39 24 6 39 -18 8 -31 8 -47 0 -23 -10 -23 -11 5 -11 31 -1 36 -17 7 -26
-26 -8 -60 3 -60 19 0 8 10 21 23 30 21 15 19 16 -48 13 l-70 -3 -3 -62 c-4
-83 -27 -80 -28 4 -1 55 -3 58 -25 58 -22 1 -24 -4 -27 -61 -3 -61 -3 -61 27
-68 47 -10 46 -24 -1 -23 -24 1 -52 -2 -63 -6 -12 -4 -28 -1 -39 7 -19 14 -19
15 10 30 l29 15 -28 11 c-15 6 -39 14 -52 17 -31 8 -32 28 -2 42 21 10 21 11
-10 17 -18 4 -33 11 -33 15 0 3 -10 6 -22 5 -21 -1 -23 -7 -26 -69 -3 -60 -5
-67 -20 -60 -9 4 -53 10 -97 13 -89 7 -105 13 -105 42 0 12 5 19 13 17 6 -3
12 -11 12 -19 0 -11 20 -15 83 -19 72 -4 82 -3 82 12 0 49 -30 61 -84 33 -36
-19 -36 -19 -36 5 0 13 -9 22 -25 26 -30 7 -32 20 -6 34 30 15 73 12 114 -9
29 -15 37 -16 37 -5 0 11 28 14 145 14 124 0 145 2 145 15 0 9 10 20 23 25 24
11 251 6 280 -5z"/>
<path  d="M182 1562 c-25 -38 -25 -37 5 -46 27 -9 32 0 24 45 l-6 36 -23 -35z"/>
<path d="M174 1327 c-9 -24 6 -44 18 -22 7 11 6 21 -1 28 -7 7 -12 6 -17 -6z"/>
<path d="M202 1276 c-10 -22 -8 -31 13 -62 l25 -37 -6 49 c-9 68 -18 81 -32
50z"/>
<path d="M157 1213 c-11 -10 -8 -71 3 -78 6 -4 10 7 10 24 0 35 19 42 27 11 6
-22 23 -27 23 -7 0 34 -45 69 -63 50z"/>
<path d="M2483 1679 c-34 -10 -39 -24 -24 -64 7 -17 8 -17 15 8 8 32 22 35 31
7 11 -34 25 -22 25 20 0 22 -3 40 -7 39 -5 0 -23 -5 -40 -10z"/>
<path d="M2350 850 l-21 -41 42 21 c39 21 40 22 23 41 -9 10 -19 19 -20 19 -2
0 -13 -18 -24 -40z"/>
<path d="M2144 659 l-19 -22 30 7 c36 9 39 12 30 25 -9 16 -20 13 -41 -10z"/>
<path d="M1875 626 c-32 -13 -27 -20 23 -31 30 -6 32 -5 32 19 0 29 -11 31
-55 12z"/>
<path d="M826 655 c22 -16 50 -19 58 -6 7 11 -17 21 -52 21 -25 0 -25 -1 -6
-15z"/>
<path d="M1104 647 l29 -24 -34 -7 -34 -8 35 -13 c50 -19 50 -19 50 30 l0 45
-37 0 -38 0 29 -23z"/>
<path d="M1128 523 c7 -3 16 -2 19 1 4 3 -2 6 -13 5 -11 0 -14 -3 -6 -6z"/>
<path d="M1932 1068 c-139 -55 -251 -102 -249 -104 4 -5 507 192 516 202 12
12 -36 -6 -267 -98z"/>
<path d="M526 1111 c12 -11 264 -94 269 -89 2 2 -59 25 -137 51 -78 25 -137
43 -132 38z"/>
<path d="M2125 1090 c-44 -16 -75 -29 -69 -29 15 -1 137 40 149 50 12 12 13
12 -80 -21z"/>
<path d="M835 1005 c17 -8 37 -14 45 -14 8 0 2 7 -15 14 -16 8 -37 14 -45 14
-8 0 -1 -7 15 -14z"/>
<path fill="red" d="M668 331 l-33 -29 -3 -146 c-3 -142 -3 -146 17 -146 20 0 21 5 21
129 0 185 -13 175 232 181 163 4 193 7 193 20 0 13 -30 15 -197 18 l-197 2
-33 -29z"/>
<path fill="red" d="M1177 353 c-12 -11 -8 -270 4 -296 19 -42 44 -48 184 -45 108 3 130
6 130 18 0 12 -22 15 -125 18 -164 4 -160 -1 -160 154 l0 118 195 0 195 0 0
-25 c0 -28 -6 -29 -197 -25 -122 2 -162 -19 -163 -88 0 -22 8 -41 25 -57 20
-21 34 -25 85 -25 53 0 60 2 60 20 0 17 -7 20 -53 20 -55 0 -77 12 -77 40 0
34 33 50 103 50 77 0 87 -10 87 -84 0 -39 3 -46 20 -46 17 0 20 7 20 46 0 64
13 84 55 84 l35 0 0 -110 c0 -103 1 -110 20 -110 19 0 20 7 20 175 l0 175
-228 0 c-126 0 -232 -3 -235 -7z"/>
<path fill="red" d="M1690 340 c0 -19 7 -20 158 -20 126 0 162 -3 180 -16 12 -8 22 -19
22 -25 0 -5 -63 -9 -151 -9 -145 0 -183 -6 -201 -34 -4 -6 -8 -52 -8 -102 0
-127 -5 -124 197 -124 175 0 183 3 198 62 6 22 1 33 -24 58 l-30 31 -113 -3
c-98 -3 -113 -5 -116 -21 -3 -15 7 -17 106 -17 115 0 138 -8 130 -47 -3 -16
-17 -18 -153 -18 l-150 0 -3 73 c-2 46 2 79 9 88 9 11 48 14 185 14 174 0 174
0 174 23 0 32 -36 86 -66 97 -14 6 -97 10 -185 10 -152 0 -159 -1 -159 -20z"/>
<path fill="red" d="M727 264 c-14 -15 -7 -82 12 -105 16 -20 31 -25 87 -29 74 -6 99 -24
78 -57 -9 -14 -30 -19 -95 -23 -69 -4 -84 -8 -87 -22 -3 -16 6 -18 92 -18 85
0 97 2 116 22 11 12 20 25 20 30 0 4 22 8 49 8 47 0 50 -2 53 -28 2 -19 9 -27
23 -27 19 0 20 7 20 125 l0 125 -181 3 c-99 1 -183 -1 -187 -4z m323 -89 l0
-55 -50 0 c-39 0 -54 5 -74 25 -21 21 -34 25 -84 25 -62 0 -90 16 -78 45 4 12
30 15 146 15 l140 0 0 -55z"/>
</g>
</svg>
